<svg width="43" height="30" viewBox="0 0 43 30" fill="none" xmlns="http://www.w3.org/2000/svg">
<path d="M42.7583 13.892V16.0299C42.7583 16.6203 42.2798 17.0988 41.6894 17.0988H7.11926L16.633 26.5912C16.8354 26.7919 16.9492 27.0651 16.9492 27.3502C16.9492 27.6352 16.8354 27.9084 16.633 28.1091L15.1151 29.6057C14.9144 29.808 14.6411 29.9219 14.3561 29.9219C14.0711 29.9219 13.7979 29.808 13.5972 29.6057L0.470342 16.5002C0.169553 16.1998 0.000374242 15.7922 0 15.3671V14.5547C0.00492578 14.1305 0.173419 13.7246 0.470342 13.4216L13.5972 0.316196C13.7979 0.113829 14.0711 0 14.3561 0C14.6411 0 14.9144 0.113829 15.1151 0.316196L16.633 1.83412C16.8341 2.03116 16.9474 2.30085 16.9474 2.58239C16.9474 2.86393 16.8341 3.13362 16.633 3.33066L7.11926 12.823H41.6894C42.2798 12.823 42.7583 13.3016 42.7583 13.892Z" fill="white"/>
</svg>
