<svg width="220" height="56" viewBox="0 0 220 56" fill="none" xmlns="http://www.w3.org/2000/svg">
<rect opacity="0.8" x="1.99392" y="1.99392" width="216.012" height="52.0122" rx="5.00608" fill="#890404" stroke="black" stroke-width="2.01216"/>
<path d="M59.4332 38V20H61.6892V35.984L60.8972 35.624L73.9052 20H76.4012L61.4012 38H59.4332ZM67.9772 28.712L69.4892 26.96L76.6892 38H74.0732L67.9772 28.712ZM80.8875 42.272C80.1995 42.272 79.5835 42.184 79.0395 42.008C78.4955 41.832 77.9595 41.576 77.4315 41.24V39.488C77.9595 39.824 78.4715 40.072 78.9675 40.232C79.4635 40.392 80.0315 40.472 80.6715 40.472C81.3595 40.472 81.9515 40.312 82.4475 39.992C82.9435 39.688 83.3595 39.184 83.6955 38.48L90.4395 24.488H92.7915L85.3995 39.296C85.0635 39.984 84.6635 40.544 84.1995 40.976C83.7515 41.424 83.2475 41.752 82.6875 41.96C82.1435 42.168 81.5435 42.272 80.8875 42.272ZM83.1435 37.568L76.7355 24.488H79.1595L85.3755 37.568H83.1435ZM109.672 24.488V38H107.464V25.256L108.472 26.264H97.1196L98.1516 25.256V38H95.9436V24.488H109.672ZM114.32 38V24.488H116.504V36.992L115.664 36.872L126.008 24.488H128.864V38H126.68V25.376L127.544 25.52L117.128 38H114.32ZM137.909 25.232H140.117V38H137.909V25.232ZM132.053 24.488H145.973V26.288H132.053V24.488ZM149.152 38V24.488H151.36V37.304L150.472 36.248H156.784C157.744 36.248 158.504 36.008 159.064 35.528C159.624 35.032 159.904 34.368 159.904 33.536C159.904 32.688 159.624 32.024 159.064 31.544C158.504 31.048 157.744 30.8 156.784 30.8H150.64V29.096H156.976C158.016 29.096 158.92 29.28 159.688 29.648C160.472 30.016 161.08 30.536 161.512 31.208C161.944 31.88 162.16 32.656 162.16 33.536C162.16 34.432 161.944 35.216 161.512 35.888C161.08 36.56 160.472 37.08 159.688 37.448C158.92 37.816 158.016 38 156.976 38H149.152Z" fill="black"/>
</svg>
